<mxfile host="app.diagrams.net" modified="2022-06-10T01:18:50.421Z" agent="5.0 (Windows)" etag="_nKqlmmdIADc0IMjs32a" version="19.0.3" type="github">
  <diagram id="rwxcwk1571IfmFF8ldCv" name="Page-1">
    <mxGraphModel dx="868" dy="468" grid="1" gridSize="10" guides="1" tooltips="1" connect="1" arrows="1" fold="1" page="1" pageScale="1" pageWidth="827" pageHeight="1169" math="0" shadow="0">
      <root>
        <mxCell id="0" />
        <mxCell id="1" parent="0" />
        <object label="&lt;div&gt;mysql&lt;/div&gt;&lt;div&gt;&lt;br&gt;&lt;/div&gt;" aa="aa" id="Q_bqeU-2kPtRTXOWOky3-1">
          <mxCell style="shape=datastore;whiteSpace=wrap;html=1;" parent="1" vertex="1">
            <mxGeometry x="200" y="320" width="60" height="60" as="geometry" />
          </mxCell>
        </object>
        <mxCell id="Q_bqeU-2kPtRTXOWOky3-2" value="&lt;div&gt;editorDB -&amp;gt;（author,books,chapter_comments_new,chapters,chapters_original,&lt;/div&gt;&lt;div&gt;&lt;span style=&quot;white-space: pre;&quot;&gt;	&lt;/span&gt;&lt;span style=&quot;white-space: pre;&quot;&gt;	&lt;/span&gt;operation_logs,publish_schedule,terms,user,user_tasks）&lt;/div&gt;adminDB -&amp;gt;（author，book_info，book_detail）" style="text;html=1;strokeColor=none;fillColor=none;spacing=5;spacingTop=-20;whiteSpace=wrap;overflow=hidden;rounded=0;" parent="1" vertex="1">
          <mxGeometry x="250" y="330" width="490" height="120" as="geometry" />
        </mxCell>
        <mxCell id="Q_bqeU-2kPtRTXOWOky3-4" value="" style="edgeStyle=orthogonalEdgeStyle;rounded=0;orthogonalLoop=1;jettySize=auto;html=1;entryX=0.7;entryY=0;entryDx=0;entryDy=0;entryPerimeter=0;" parent="1" source="Q_bqeU-2kPtRTXOWOky3-3" target="Q_bqeU-2kPtRTXOWOky3-1" edge="1">
          <mxGeometry relative="1" as="geometry">
            <Array as="points">
              <mxPoint x="240" y="310" />
            </Array>
          </mxGeometry>
        </mxCell>
        <mxCell id="Q_bqeU-2kPtRTXOWOky3-3" value="后端框架：egg.js（egg-mysql，egg-websocket-plugin）" style="rounded=0;whiteSpace=wrap;html=1;" parent="1" vertex="1">
          <mxGeometry x="150" y="200" width="330" height="60" as="geometry" />
        </mxCell>
        <mxCell id="Q_bqeU-2kPtRTXOWOky3-6" value="" style="edgeStyle=orthogonalEdgeStyle;rounded=0;orthogonalLoop=1;jettySize=auto;html=1;" parent="1" source="Q_bqeU-2kPtRTXOWOky3-5" target="Q_bqeU-2kPtRTXOWOky3-3" edge="1">
          <mxGeometry relative="1" as="geometry" />
        </mxCell>
        <mxCell id="Q_bqeU-2kPtRTXOWOky3-5" value="外部接口：翻译接口（中-&amp;gt;英）" style="rounded=0;whiteSpace=wrap;html=1;" parent="1" vertex="1">
          <mxGeometry x="610" y="200" width="120" height="60" as="geometry" />
        </mxCell>
        <mxCell id="Q_bqeU-2kPtRTXOWOky3-8" value="" style="edgeStyle=orthogonalEdgeStyle;rounded=0;orthogonalLoop=1;jettySize=auto;html=1;" parent="1" source="Q_bqeU-2kPtRTXOWOky3-7" target="Q_bqeU-2kPtRTXOWOky3-3" edge="1">
          <mxGeometry relative="1" as="geometry" />
        </mxCell>
        <mxCell id="Q_bqeU-2kPtRTXOWOky3-7" value="通讯接口：API接口（业务接口），websocket接口（章节实时评论）" style="rounded=0;whiteSpace=wrap;html=1;" parent="1" vertex="1">
          <mxGeometry x="150" y="100" width="330" height="70" as="geometry" />
        </mxCell>
        <mxCell id="Q_bqeU-2kPtRTXOWOky3-10" value="" style="edgeStyle=orthogonalEdgeStyle;rounded=0;orthogonalLoop=1;jettySize=auto;html=1;" parent="1" source="Q_bqeU-2kPtRTXOWOky3-9" target="Q_bqeU-2kPtRTXOWOky3-7" edge="1">
          <mxGeometry relative="1" as="geometry" />
        </mxCell>
        <mxCell id="Q_bqeU-2kPtRTXOWOky3-9" value="前端：vue，vuetify" style="rounded=0;whiteSpace=wrap;html=1;" parent="1" vertex="1">
          <mxGeometry x="150" y="10" width="330" height="60" as="geometry" />
        </mxCell>
      </root>
    </mxGraphModel>
  </diagram>
</mxfile>
